<?xml version="1.0" encoding="UTF-8"?>
<svg width="478px" height="417px" viewBox="0 0 478 417" version="1.1" xmlns="http://www.w3.org/2000/svg" xmlns:xlink="http://www.w3.org/1999/xlink">
    <!-- Generator: Sketch 51.3 (57544) - http://www.bohemiancoding.com/sketch -->
    <title>eth_logo</title>
    <desc>Created with Sketch.</desc>
    <defs></defs>
    <g id="Page-1" stroke="none" stroke-width="1" fill="none" fill-rule="evenodd">
        <g id="eth_logo" fill-rule="nonzero">
            <path d="M183.16878,381.038104 C80.7543338,375.380907 0,311.056238 0,232.53707 C0,176.153193 41.6413035,127.088769 103.042126,101.811532 C128.515747,41.9620716 187.864818,0 257.014656,0 C347.890915,0 421.840228,72.4728714 424.219108,162.775128 C456.047364,182.08621 477.312933,217.067013 477.312933,257.014656 C477.312933,312.862476 435.74991,359.002731 381.868481,366.190806 L183.16878,417 L183.16878,381.038104 Z" id="Combined-Shape" fill="#FFE37A"></path>
            <g id="Group-2" transform="translate(239.000000, 224.500000) rotate(-180.000000) translate(-239.000000, -224.500000) translate(86.000000, 130.000000)" fill="#3A3A38">
                <polygon id="Path-2" points="64.1687763 0 0 91.2647204 64.1687763 189 149.234873 189 182 94.5 124.189382 94.5 109.053406 138.712607 98.5499345 138.712607 58.1518272 94.5 98.5499345 60.9445938 98.5499345 0"></polygon>
                <polygon id="Path-2-Copy" transform="translate(217.000000, 94.500000) scale(-1, -1) translate(-217.000000, -94.500000) " points="191.966429 0 128 91.2647204 191.966429 189 276.764281 189 306 105.972202 248.37168 105.972202 236.709521 138.712607 226.239171 138.712607 185.968453 94.5 226.239171 60.9445938 226.239171 0"></polygon>
            </g>
        </g>
    </g>
</svg>