<?xml version="1.0" encoding="UTF-8"?>
<svg width="80px" height="78px" viewBox="0 0 80 78" version="1.1" xmlns="http://www.w3.org/2000/svg" xmlns:xlink="http://www.w3.org/1999/xlink">
    <!-- Generator: Sketch 51.3 (57544) - http://www.bohemiancoding.com/sketch -->
    <title>deposit-eth</title>
    <desc>Created with Sketch.</desc>
    <defs></defs>
    <g id="Page-1" stroke="none" stroke-width="1" fill="none" fill-rule="evenodd">
        <g id="deposit-eth">
            <g id="deposit-eth-copy">
                <g id="Oval">
                    <g id="path-1-link" fill="#FFFFFF">
                        <circle id="path-1" cx="34" cy="34" r="34"></circle>
                    </g>
                    <circle stroke="#38393A" stroke-width="3" cx="34" cy="34" r="32.5"></circle>
                </g>
                <g id="Group-6" transform="translate(46.000000, 44.000000)">
                    <g id="Oval-Copy">
                        <g id="path-2-link" fill="#FFFFFF">
                            <circle id="path-2" cx="17" cy="17" r="17"></circle>
                        </g>
                        <circle id="Oval" stroke="#38393A" stroke-width="3" cx="17" cy="17" r="15.5"></circle>
                    </g>
                    <polygon id="Combined-Shape" fill="#38393A" fill-rule="nonzero" points="19.0769231 15.4230769 25.5 15.4230769 25.5 19.5769231 19.0769231 19.5769231 19.0769231 26 14.9230769 26 14.9230769 19.5769231 8.5 19.5769231 8.5 15.4230769 14.9230769 15.4230769 14.9230769 9 19.0769231 9"></polygon>
                </g>
            </g>
            <g id="Group-2-Copy" transform="translate(34.000000, 34.500000) rotate(-180.000000) translate(-34.000000, -34.500000) translate(15.000000, 23.000000)" fill="#3A3A38" fill-rule="nonzero">
                <polygon id="Path-2" points="8.10924096 0 0 11.1062887 8.10924096 23 18.8593521 23 23 11.5 15.6942626 11.5 13.7814744 16.8803701 12.4541126 16.8803701 7.34885728 11.5 12.4541126 7.41653787 12.4541126 0"></polygon>
                <polygon id="Path-2-Copy" transform="translate(27.000000, 11.500000) scale(-1, -1) translate(-27.000000, -11.500000) " points="23.9059631 0 16 11.1062887 23.9059631 23 34.3865965 23 38 12.896088 30.8773987 12.896088 29.4360083 16.8803701 28.14192 16.8803701 23.1646403 11.5 28.14192 7.41653787 28.14192 0"></polygon>
            </g>
        </g>
    </g>
</svg>