<?xml version="1.0" encoding="UTF-8"?>
<svg width="213px" height="78px" viewBox="0 0 213 78" version="1.1" xmlns="http://www.w3.org/2000/svg" xmlns:xlink="http://www.w3.org/1999/xlink">
    <!-- Generator: Sketch 51.3 (57544) - http://www.bohemiancoding.com/sketch -->
    <title>hardware-wallet-step-1</title>
    <desc>Created with Sketch.</desc>
    <defs></defs>
    <g id="Page-1" stroke="none" stroke-width="1" fill="none" fill-rule="evenodd">
        <g id="hardware-wallet-step-1" transform="translate(1.000000, 1.000000)">
            <g id="Group-5">
                <g id="hardware-wallet-step-1-copy">
                    <path d="M4,9 L70,9 L70,17 L4,17 C1.790861,17 2.705415e-16,15.209139 0,13 C-2.705415e-16,10.790861 1.790861,9 4,9 Z" id="Rectangle" fill="#D9F0FF" fill-rule="nonzero"></path>
                    <g id="Group-4-Copy">
                        <g id="Group-2" transform="translate(91.000000, 31.000000)" stroke="#3098DC">
                            <polyline id="Stroke-10" points="7.33333333 0 13.4253333 5.29042105 7.33333333 10.5802632"></polyline>
                            <path d="M0,5.21052632 L13.5,5.21052632" id="Stroke-11"></path>
                        </g>
                        <g id="Group-3" transform="translate(26.000000, 0.000000)">
                            <path d="M175.535988,75.1897419 L92.1616766,75.1897419 C90.1381677,75.1897419 88.497006,73.5434839 88.497006,71.5123226 L88.497006,3.67741935 C88.497006,1.64625806 90.1381677,0 92.1616766,0 L175.535988,0 C177.560108,0 179.200659,1.64625806 179.200659,3.67741935 L179.200659,71.5123226 C179.200659,73.5434839 177.560108,75.1897419 175.535988,75.1897419" id="Fill-12" fill="#FEFEFE" fill-rule="nonzero"></path>
                            <path d="M175.535988,75.1897419 L92.1616766,75.1897419 C90.1381677,75.1897419 88.497006,73.5434839 88.497006,71.5123226 L88.497006,3.67741935 C88.497006,1.64625806 90.1381677,0 92.1616766,0 L175.535988,0 C177.560108,0 179.200659,1.64625806 179.200659,3.67741935 L179.200659,71.5123226 C179.200659,73.5434839 177.560108,75.1897419 175.535988,75.1897419 Z" id="Stroke-13" stroke="#3098DC"></path>
                            <path d="M183.70576,75.6298065 L84.2215569,75.6298065 C83.5466467,75.6298065 83,75.0812581 83,74.404 L83,69.8709677 C83,69.1937097 83.5466467,68.6451613 84.2215569,68.6451613 L183.70576,68.6451613 C184.38006,68.6451613 184.927317,69.1937097 184.927317,69.8709677 L184.927317,74.404 C184.927317,75.0812581 184.38006,75.6298065 183.70576,75.6298065" id="Fill-14" fill="#D9F0FF" fill-rule="nonzero"></path>
                            <path d="M183.70576,75.6298065 L84.2215569,75.6298065 C83.5466467,75.6298065 83,75.0812581 83,74.404 L83,69.8709677 C83,69.1937097 83.5466467,68.6451613 84.2215569,68.6451613 L183.70576,68.6451613 C184.38006,68.6451613 184.927317,69.1937097 184.927317,69.8709677 L184.927317,74.404 C184.927317,75.0812581 184.38006,75.6298065 183.70576,75.6298065 Z" id="Stroke-15" stroke="#3098DC"></path>
                            <polygon id="Fill-16" fill="#FEFEFE" fill-rule="nonzero" points="92.7724551 63.6953548 175.155473 63.6953548 175.155473 4.90322581 92.7724551 4.90322581"></polygon>
                            <polygon id="Stroke-17" stroke="#3098DC" points="92.7724551 63.6953548 175.155473 63.6953548 175.155473 4.90322581 92.7724551 4.90322581"></polygon>
                            <g id="Group-2-Copy-3" transform="translate(8.500000, 42.500000) rotate(-180.000000) translate(-8.500000, -42.500000) translate(0.000000, 37.000000)" fill-rule="nonzero">
                                <polygon id="Path-2" fill="#3098DC" points="3.52575694 0 0 5.3117033 3.52575694 11 8.19971829 11 10 5.5 6.82359243 5.5 5.9919454 8.0732205 5.41483157 8.0732205 3.19515534 5.5 5.41483157 3.54703985 5.41483157 0"></polygon>
                                <polygon id="Path-2-Copy" fill="#D9F0FF" transform="translate(12.000000, 5.500000) scale(-1, -1) translate(-12.000000, -5.500000) " points="10.5936196 0 7 5.3117033 10.5936196 11 15.3575439 11 17 6.16769428 13.7624539 6.16769428 13.1072765 8.0732205 12.5190545 8.0732205 10.2566547 5.5 12.5190545 3.54703985 12.5190545 0"></polygon>
                            </g>
                        </g>
                        <g id="Group" transform="translate(0.000000, 9.000000)" stroke="#3098DC">
                            <path d="M66.9571429,59 L3.68571429,59 C1.65058571,59 0,57.3318526 0,55.2736842 L0,3.72631579 C0,1.66876842 1.65058571,0 3.68571429,0 L66.9571429,0 C68.9922714,0 70.6428571,1.66876842 70.6428571,3.72631579 L70.6428571,55.2736842 C70.6428571,57.3318526 68.9922714,59 66.9571429,59 Z" id="Stroke-1"></path>
                            <path d="M66.9571429,7.45263158 L3.68571429,7.45263158 C1.65058571,7.45263158 0,5.78448421 0,3.72631579 C0,1.66876842 1.65058571,0 3.68571429,0 L66.9571429,0 C68.9922714,0 70.6428571,1.66876842 70.6428571,3.72631579" id="Stroke-3"></path>
                            <path d="M66.9571429,7.45263158 C68.9922714,7.45263158 70.6428571,9.1214 70.6428571,11.1789474" id="Stroke-5"></path>
                            <polygon id="Stroke-7" points="70.6428571 23.5987579 85.5319143 23.5987579 85.5319143 19.8736842 70.6428571 19.8736842"></polygon>
                            <polygon id="Stroke-9" points="70.6428571 38.6530737 85.5319143 38.6530737 85.5319143 23.6 70.6428571 23.6"></polygon>
                            <path d="M50.4672571,32.9642316 C50.4672571,24.3626526 43.5700571,17.3894737 35.0622,17.3894737 C26.5543429,17.3894737 19.6571429,24.3626526 19.6571429,32.9642316 C19.6571429,41.5664316 26.5543429,48.5389895 35.0622,48.5389895 C43.5700571,48.5389895 50.4672571,41.5664316 50.4672571,32.9642316 Z" id="Stroke-24"></path>
                        </g>
                    </g>
                </g>
                <g id="Group-4-Copy" transform="translate(145.000000, 18.000000)" fill-rule="nonzero">
                    <polygon id="Path-7" stroke="#3098DC" fill="#FFFFFF" points="0.88998999 0 0 8.16606404 2.99880873 14.1819831 6.83919671 17.7962575 5.37979024 20.2135471 6.33767333 26.6084868 8.55266034 31.2323021 12.368647 35.534068 16.0251332 35.534068 19.6313554 31.2323021 22.0702145 26.6084868 23.4554238 20.2135471 21.7653472 17.7962575 26.0225398 14.1819831 28.7781141 8.16606404 27.9929157 0 21.3866218 2.97283223 17.5562702 6.91535506 16.0251332 12.1059302 12.368647 12.1059302 10.9412378 6.91535506 7.49652622 2.97283223"></polygon>
                    <rect id="Rectangle-2" stroke="#3098DC" x="8.5" y="21.5" width="3" height="2"></rect>
                    <polygon id="Triangle" fill="#3098DC" transform="translate(14.000000, 28.500000) scale(1, -1) translate(-14.000000, -28.500000) " points="14 28 17 29 11 29"></polygon>
                    <rect id="Rectangle-2-Copy" stroke="#3098DC" x="16.5" y="21.5" width="3" height="2"></rect>
                </g>
            </g>
        </g>
    </g>
</svg>